<svg width="58" height="51" viewBox="0 0 58 51" fill="none" xmlns="http://www.w3.org/2000/svg">
<path fill-rule="evenodd" clip-rule="evenodd" d="M8.91325 8.19807C8.69338 8.3603 8.5708 8.61767 8.56983 8.88254V8.89306C8.5708 9.00471 8.59318 9.11787 8.63939 9.22552L12.5503 18.3649C12.7235 18.77 13.1705 18.9683 13.5757 18.8201C16.1363 17.8782 25.0035 14.8985 30.7419 16.5058C30.7419 16.5058 24.9855 16.8493 19.7801 21.0597C19.4868 21.2976 19.3891 21.7112 19.5394 22.0626C19.9621 23.0475 20.8104 25.0273 21.2905 26.1464L21.9647 27.7777C22.1252 28.1648 22.6379 28.2113 22.8641 27.8608C24.0788 25.9742 26.1266 25.0318 28.0938 24.2092C30.1091 23.367 32.2119 22.7386 34.3571 22.3646C36.6428 21.966 38.9767 21.8594 41.2868 22.0702C41.6716 22.1052 42.0286 21.8619 42.1434 21.4823L43.9101 15.6581C44.0142 15.3136 43.8946 14.9371 43.6105 14.7253C41.6404 13.2532 33.8366 8.30873 20.1134 10.295C20.1134 10.295 31.8237 3.35624 46.6906 10.9785C47.141 11.2098 47.6848 10.967 47.8351 10.4733L49.3927 5.33703C49.417 5.25742 49.4287 5.17681 49.4301 5.0972V5.07266C49.4258 4.78025 49.274 4.50286 49.0162 4.35215C47.1502 3.26311 40.8329 9.80694e-08 32.1428 9.80694e-08C25.4821 -0.000500608 17.4282 1.91621 8.91325 8.19807Z" fill="#FBF503"/>
<path d="M16.4224 50.2553H15.0117C14.9051 50.2553 14.8029 50.2115 14.7276 50.1337C14.6522 50.0559 14.6099 49.9503 14.6099 49.8402V41.4091H11.1541C10.9329 41.4081 10.7541 41.2225 10.7541 40.994V39.6881C10.7541 39.4588 10.934 39.273 11.1559 39.273H20.2806C20.5025 39.273 20.6824 39.4588 20.6824 39.6881V40.994C20.6824 41.2233 20.5025 41.4091 20.2806 41.4091H16.8242V49.8402C16.8242 49.9503 16.7818 50.0559 16.7065 50.1337C16.6311 50.2116 16.529 50.2553 16.4224 50.2553ZM9.82732 49.4581C10.3445 48.9238 10.5559 48.244 10.5559 47.1128V46.8251C10.5559 45.6927 10.3445 45.0148 9.82732 44.4792C9.27934 43.9123 8.55313 43.6814 7.32305 43.6814H2.85645C2.6788 43.6814 2.50844 43.6084 2.38288 43.4786C2.25733 43.3487 2.18687 43.1726 2.18703 42.9891V42.1008C2.18703 41.7188 2.48674 41.4091 2.85645 41.4091H9.25094C9.47283 41.4091 9.65271 41.2233 9.65271 40.994V39.6881C9.65271 39.4588 9.47283 39.273 9.25094 39.273H3.23284C2.00215 39.273 1.27655 39.5039 0.727967 40.0707C0.210801 40.6051 -5.34058e-05 41.2849 -5.34058e-05 42.416V42.6433C-5.34058e-05 43.7775 0.210801 44.4548 0.727967 44.9892C1.27655 45.556 2.00215 45.7869 3.23284 45.7869H7.71575C8.08556 45.7869 8.38544 46.0965 8.38578 46.4786V47.4268C8.38578 47.8092 8.0858 48.1191 7.71575 48.1191H0.981113C0.759221 48.1191 0.579342 48.305 0.579342 48.5342V49.8402C0.579342 49.9503 0.621671 50.0559 0.697018 50.1337C0.772365 50.2116 0.874557 50.2553 0.981113 50.2553H7.32486C8.55373 50.2553 9.27934 50.0243 9.82732 49.4581ZM41.7478 44.7338V44.8094C41.7478 46.9256 41.4234 48.0105 40.5069 48.9575C39.661 49.8314 38.402 50.2684 36.7562 50.2684H31.8891C31.6672 50.2684 31.4873 50.0825 31.4873 49.8533V39.6881C31.4873 39.4588 31.6672 39.273 31.8891 39.273H36.758C38.4038 39.273 39.6653 39.7149 40.5087 40.5839C41.4252 41.5302 41.7478 42.6183 41.7478 44.7338ZM39.5342 44.7338C39.5342 43.3256 39.4478 42.6482 38.9131 42.0958C38.4757 41.6438 37.7706 41.4247 36.7562 41.4247H33.7016V48.1191H36.758C37.7724 48.1191 38.4781 47.8994 38.9149 47.4474C39.4496 46.8956 39.536 46.2177 39.536 44.8094L39.5342 44.7338ZM45.339 49.8402V39.6881C45.339 39.4588 45.1591 39.273 44.9372 39.273H43.5283C43.3064 39.273 43.1266 39.4588 43.1266 39.6881V49.8402C43.1266 50.0694 43.3064 50.2553 43.5283 50.2553H44.939C45.0456 50.2553 45.1478 50.2115 45.2231 50.1337C45.2985 50.0559 45.3408 49.9503 45.3408 49.8402H45.339ZM30.1901 50.2553H28.6978C28.4885 50.2551 28.2984 50.1291 28.2109 49.9326L27.5246 48.3969H21.9862L21.2986 49.9332C21.2116 50.1282 21.0231 50.2536 20.8153 50.2547H19.3157C19.1776 50.2548 19.049 50.1815 18.9754 50.0607C18.9018 49.9399 18.8934 49.7885 18.9532 49.6598L23.4845 39.9116C23.7213 39.4106 24.2137 39.0928 24.7532 39.0928C25.2928 39.0928 25.7852 39.4106 26.022 39.9116L30.5532 49.6585C30.6138 49.7872 30.606 49.939 30.5326 50.0603C30.4592 50.1816 30.3304 50.2553 30.192 50.2553H30.1901ZM22.8906 46.3638H26.6225L24.7605 41.9759L22.8906 46.3638ZM57.5975 50.2553H56.1022C55.8928 50.2553 55.7026 50.1292 55.6153 49.9326L54.9301 48.3969H49.3918L48.7048 49.9332C48.6174 50.1279 48.4292 50.2531 48.2215 50.2547H46.7219C46.5838 50.2548 46.4552 50.1815 46.3816 50.0607C46.308 49.9399 46.2996 49.7885 46.3594 49.6598L50.8907 39.9116C51.1271 39.4102 51.6196 39.092 52.1594 39.092C52.6992 39.092 53.1918 39.4102 53.4282 39.9116L57.9594 49.6585C58.0201 49.7873 58.0122 49.9392 57.9386 50.0606C57.8651 50.1819 57.7361 50.2555 57.5975 50.2553H57.5975ZM50.2962 46.3638H54.0281L52.1667 41.9759L50.2962 46.3638Z" fill="#FBF503"/>
</svg>
