<svg width="58" height="33" viewBox="0 0 58 33" fill="none" xmlns="http://www.w3.org/2000/svg">
<path d="M0.515814 0.866046H17.1672C19.0024 0.866046 20.6269 1.22916 22.0408 1.9554C23.4548 2.65138 24.5528 3.66508 25.335 4.99652C26.1172 6.29769 26.5083 7.79556 26.5083 9.49011V13.7114C26.5083 15.4664 26.1022 17.0248 25.2899 18.3865C24.4776 19.7179 23.3344 20.7619 21.8603 21.5184C20.4163 22.2446 18.7316 22.6078 16.8062 22.6078H6.74318V32.6389H0.515814V0.866046ZM16.716 17.161C17.7689 17.161 18.6263 16.8281 19.2882 16.1624C19.95 15.4664 20.2809 14.5586 20.2809 13.439V9.76245C20.2809 8.70335 19.9801 7.87121 19.3784 7.26601C18.8068 6.63055 18.0397 6.31282 17.077 6.31282H6.74318V17.161H16.716Z" fill="#FBF503"/>
<path d="M40.6933 33.002C38.3769 33.002 36.3311 32.5027 34.5562 31.5042C32.8113 30.5056 31.4576 29.0985 30.4949 27.2829C29.5322 25.4371 29.0508 23.3189 29.0508 20.9283V12.5766C29.0508 10.1861 29.5322 8.08302 30.4949 6.26743C31.4876 4.42158 32.8715 2.99937 34.6465 2.00079C36.4515 1.00222 38.5273 0.50293 40.8738 0.50293H45.6572C47.9134 0.50293 49.899 0.987087 51.6138 1.9554C53.3285 2.92372 54.6522 4.28541 55.5848 6.04048C56.5475 7.7653 57.0289 9.77758 57.0289 12.0773H50.8917C50.8917 10.2617 50.4104 8.80926 49.4477 7.71991C48.485 6.60029 47.2215 6.04048 45.6572 6.04048H40.8738C39.1891 6.04048 37.8353 6.67594 36.8125 7.94686C35.7896 9.18751 35.2782 10.8215 35.2782 12.849V20.656C35.2782 22.6834 35.7746 24.3326 36.7674 25.6035C37.7601 26.8441 39.0688 27.4645 40.6933 27.4645H45.5669C47.1613 27.4645 48.455 26.8441 49.4477 25.6035C50.4706 24.3628 50.982 22.7288 50.982 20.7014H57.1191C57.1191 23.1524 56.6378 25.316 55.6751 27.1921C54.7124 29.038 53.3586 30.4753 51.6138 31.5042C49.8689 32.5027 47.8533 33.002 45.5669 33.002H40.6933Z" fill="#FBF503"/>
</svg>
