<svg width="28" height="28" viewBox="0 0 28 28" fill="none" xmlns="http://www.w3.org/2000/svg">
<path d="M16.6667 0.666626H3.33333C1.85333 0.666626 0.666666 1.86663 0.666666 3.33329V16.6666H3.33333V3.33329H16.6667V0.666626ZM22 5.99996H8.66667C7.18667 5.99996 6 7.19996 6 8.66663V22H8.66667V8.66663H22V5.99996ZM24.6667 11.3333H14C12.52 11.3333 11.3333 12.5333 11.3333 14V24.6666C11.3333 26.1333 12.52 27.3333 14 27.3333H24.6667C26.1333 27.3333 27.3333 26.1333 27.3333 24.6666V14C27.3333 12.5333 26.1333 11.3333 24.6667 11.3333Z" fill="black"/>
</svg>
