<svg width="178" height="36" viewBox="0 0 178 36" fill="none" xmlns="http://www.w3.org/2000/svg">
<g clip-path="url(#clip0_1_284)">
<path d="M113.88 28.7099L107.086 19.5587L100.299 28.7099H97.5027L105.671 17.6534L98.211 7.60315H101.007L107.086 15.7998L113.164 7.60315H115.958L108.504 17.6515L116.674 28.7099H113.88ZM60.936 28.7062L52.7585 17.6515L60.2183 7.60315H57.4223L51.3418 15.8017L45.2669 7.60315H42.4783L49.9345 17.6515L41.7588 28.7062H44.5586L51.3455 19.5587L58.1381 28.7062H60.936Z" fill="#FBF503"/>
<path d="M76.4837 18.4507C76.0624 18.0943 75.5932 17.7979 75.0894 17.5701C75.8624 17.1625 76.5088 16.5537 76.9594 15.809C77.41 15.0643 77.6477 14.2119 77.6469 13.3432C77.6469 11.9928 77.1455 7.6013 70.7332 7.6013H62.0971V16.7007H59.2209C58.8481 17.1835 58 18.3434 57.6775 18.8188H62.0971V28.7062L70.7351 28.7081C75.4138 28.7081 78.3198 26.3514 78.3198 22.5462C78.3198 20.8851 77.6879 19.4736 76.4837 18.4507ZM64.485 9.80447H70.7351C72.4257 9.80447 75.2591 10.2225 75.2591 13.1582C75.2591 15.3781 73.6094 16.7007 70.7351 16.7007H64.485V9.80447ZM70.7332 26.5067H64.4831V18.8243H70.7332C73.1024 18.8243 75.9376 19.4736 75.9376 22.5C75.9376 25.9851 72.6774 26.5067 70.7332 26.5067ZM89.5543 7.11664C83.5801 7.11664 79.4047 11.6506 79.4047 18.1436C79.4047 24.6458 83.5801 29.1761 89.5543 29.1761C95.5229 29.1761 99.6872 24.6458 99.6872 18.1436C99.6872 11.6506 95.5229 7.11664 89.5543 7.11664ZM89.5543 26.9433C85.0024 26.9433 81.813 23.3232 81.813 18.1436C81.813 12.964 85.0024 9.34571 89.5543 9.34571C94.0988 9.34571 97.2695 12.964 97.2695 18.1436C97.2695 23.3232 94.0988 26.9433 89.5543 26.9433ZM5.29639 5.34449L5.27962 5.35929V5.36114C3.60689 6.99549 2.27905 8.94421 1.37363 11.0935C0.468222 13.2428 0.00338675 15.5495 0.00627256 17.8791C0.000975893 21.7301 1.27454 25.4755 3.62995 28.536C3.65418 28.5656 3.69146 28.5823 3.72501 28.5656C3.7567 28.5471 3.75857 28.5083 3.74552 28.475C2.3941 24.3276 9.3022 14.2756 12.8718 10.0616C12.883 10.0468 12.8979 10.0302 12.8979 10.0098C12.8979 9.98575 12.8811 9.96726 12.8644 9.95246C6.86031 4.02185 5.25725 5.37779 5.27962 5.35929L5.29639 5.34449ZM30.1738 5.34449L30.1905 5.35929V5.36114C31.8631 6.99552 33.1907 8.94429 34.0958 11.0936C35.0009 13.2429 35.4653 15.5496 35.462 17.8791C35.4673 21.7301 34.1937 25.4755 31.8383 28.536C31.816 28.5656 31.7768 28.5823 31.7433 28.5656C31.7134 28.5471 31.7116 28.5083 31.7228 28.475C33.0742 24.3276 26.1717 14.2682 22.6039 10.0524C22.5909 10.0376 22.5778 10.0209 22.5778 10.0024C22.5778 9.97651 22.5927 9.95801 22.6114 9.94321C28.6173 4.0126 30.2092 5.37779 30.1887 5.35929L30.1738 5.34449ZM17.7351 0.285156C21.3121 0.285156 24.2555 1.25818 26.9695 2.86014C27.003 2.87679 27.0124 2.91379 26.9993 2.94709C26.9863 2.97853 26.949 2.98593 26.9136 2.97668C23.4819 2.24044 18.2645 5.18355 17.7724 5.47768C17.7612 5.48508 17.75 5.49248 17.7351 5.49248C17.7183 5.49248 17.7071 5.48508 17.6959 5.47768C16.3874 4.73219 11.5651 2.2238 8.52862 2.99518C8.49507 3.00258 8.45779 2.99703 8.44288 2.96373C8.43652 2.9481 8.43603 2.93072 8.4415 2.91476C8.44698 2.8988 8.45805 2.88533 8.4727 2.87679C11.1867 1.25818 14.1673 0.285156 17.7351 0.285156ZM17.7351 14.3958C17.7556 14.3958 17.7779 14.4124 17.791 14.4235C23.096 18.4266 32.1757 28.3233 29.4039 31.1221L29.4076 31.1184L29.4058 31.1221H29.402C26.1752 33.9329 22.0268 35.4803 17.7332 35.4748C13.4392 35.4799 9.29029 33.9326 6.06251 31.1221L6.05878 31.1184L6.06251 31.1221C3.29629 28.3233 12.3741 18.4266 17.6736 14.4235C17.6885 14.4124 17.7127 14.3958 17.7351 14.3958ZM157.947 7.60315V24.9233L145.091 7.5902L142.983 7.5865V28.6748H145.35V11.7376L157.944 28.6877L160.317 28.6914V7.60315H157.947ZM130.693 7.11294C124.719 7.11294 120.542 11.6488 120.542 18.1399C120.542 24.6421 124.719 29.1798 130.693 29.1798C136.662 29.1798 140.826 24.6421 140.826 18.1399C140.826 11.6506 136.662 7.11294 130.693 7.11294ZM130.693 26.9433C126.142 26.9433 122.952 23.3232 122.952 18.1399C122.952 12.9622 126.142 9.34201 130.693 9.34201C135.238 9.34201 138.409 12.9622 138.409 18.1399C138.409 23.3232 135.238 26.9433 130.693 26.9433ZM165.355 26.627V18.8243H177.056V16.7599H165.355V9.65093H177.85V7.58835H162.975V28.6914H177.997V26.627H165.355Z" fill="#FBF503"/>
</g>
<defs>
<clipPath id="clip0_1_284">
<rect width="178" height="35.1878" fill="white" transform="translate(-6.10352e-05 0.285156)"/>
</clipPath>
</defs>
</svg>
